# xmcd
#
# Track frame offsets:
#	150
#	19271
#	38323
#	54229
#	68631
#	84457
#	103056
#	120609
#	136435
#	153068
#	168893
#	185695
#	200513
#	220315
#	237420
#	253248
#
# Disc length: 3602 seconds
#
# Revision: 1
# Processed by: cddbd v1.5.2PL0 Copyright (c) Steve Scherf et al.
# Submitted via: EasyCDDAExtractor 11.0.2.1
#
DISCID=d60e1010
DTITLE=Golf-Mike - Diary Hits
DYEAR=2008
DGENRE=Acapella
TTITLE0=Epilogue
TTITLE1=ไม่ต้องบอกแล้วว่าเธอรักฉัน
TTITLE2=ที่ปรึกษา
TTITLE3=Bounce
TTITLE4=Fight for you
TTITLE5=เรื่องเล็กของเธอ
TTITLE6=เซ็ง
TTITLE7=ตลกดี
TTITLE8=ต้องเธอเท่านั้น
TTITLE9=ไม่ว่างกำลังเต้น
TTITLE10=ผู้ชายไม่เป็นเพื่อนกับผู้หญิง
TTITLE11=Happy Birthday
TTITLE12=อย่าเล่นแบบนี้
TTITLE13=ขอบคุณ...ยังน้อยไป
TTITLE14=Fight for you
TTITLE15=ขอบคุณยัง...น้อยไป
EXTD=
EXTT0=
EXTT1=
EXTT2=
EXTT3=
EXTT4=
EXTT5=
EXTT6=
EXTT7=
EXTT8=
EXTT9=
EXTT10=
EXTT11=
EXTT12=
EXTT13=
EXTT14=
EXTT15=
PLAYORDER=
